<?xml version="1.0" standalone="no"?>
<!DOCTYPE svg PUBLIC "-//W3C//DTD SVG 20010904//EN"
 "http://www.w3.org/TR/2001/REC-SVG-20010904/DTD/svg10.dtd">
<svg version="1.0" xmlns="http://www.w3.org/2000/svg"
 width="393.000000pt" height="452.000000pt" viewBox="0 0 393.000000 452.000000"
 preserveAspectRatio="xMidYMid meet">
<metadata>
Created by potrace 1.16, written by Peter Selinger 2001-2019
</metadata>
<g transform="translate(0.000000,452.000000) scale(0.100000,-0.100000)"
fill="#000000" stroke="none">
<path d="M41 4494 c-11 -14 -23 -40 -26 -58 -3 -17 -4 -1008 -3 -2203 l3
-2172 21 -28 21 -28 1918 -3 c1774 -2 1920 -1 1937 15 17 15 18 84 18 1807 l0
1791 -453 453 -452 452 -1482 0 -1482 0 -20 -26z m2769 -609 c0 -432 1 -447
50 -490 21 -19 38 -20 426 -23 l404 -3 0 -1569 0 -1570 -1710 0 -1710 0 0
2030 0 2030 1270 0 1270 0 0 -405z m500 -20 l235 -235 -238 0 -237 0 0 235 c0
129 1 235 3 235 1 0 108 -106 237 -235z"/>
<path d="M913 3120 c-61 -37 -81 -116 -43 -177 40 -67 -28 -63 1110 -63 1138
0 1070 -4 1110 63 25 41 25 93 0 134 -40 67 28 63 -1112 63 -1007 0 -1034 -1
-1065 -20z"/>
<path d="M913 2370 c-61 -37 -81 -116 -43 -177 40 -67 -28 -63 1110 -63 1138
0 1070 -4 1110 63 25 41 25 93 0 134 -40 67 28 63 -1112 63 -1007 0 -1034 -1
-1065 -20z"/>
<path d="M913 1620 c-61 -37 -81 -116 -43 -177 39 -65 24 -63 612 -63 511 0
534 1 565 20 83 50 83 170 0 220 -31 19 -54 20 -567 20 -513 0 -536 -1 -567
-20z"/>
</g>
</svg>
